<svg width="90" height="90" viewBox="0 0 90 90" fill="none" xmlns="http://www.w3.org/2000/svg">
<g clip-path="url(#clip0_87_3808)">
<path d="M40.3885 17.7095H14.5457C11.4561 17.7095 8.94263 20.223 8.94263 23.3125V54.4149C8.94263 57.5044 11.4561 60.0179 14.5457 60.0179H40.3885C43.478 60.0179 45.9915 57.5044 45.9915 54.4149V51.3651C45.9915 50.3336 45.1551 49.4974 44.1238 49.4974C43.0924 49.4974 42.2562 50.3336 42.2562 51.3651V54.4151C42.2562 55.4448 41.4182 56.2827 40.3885 56.2827H14.5457C13.5159 56.2827 12.678 55.4448 12.678 54.4151V23.3125C12.678 22.2826 13.5159 21.4448 14.5457 21.4448H40.3885C41.4182 21.4448 42.2562 22.2826 42.2562 23.3125V43.8944C42.2562 44.9259 43.0924 45.7621 44.1238 45.7621C45.1553 45.7621 45.9915 44.9259 45.9915 43.8944V23.3125C45.9917 20.2231 43.478 17.7095 40.3885 17.7095Z" fill="#DC5461"/>
<path d="M33.6033 12.6779C34.6348 12.6779 35.471 11.8417 35.471 10.8102C35.471 9.7787 34.6348 8.9425 33.6033 8.9425H21.3301C20.2986 8.9425 19.4624 9.7787 19.4624 10.8102C19.4624 11.8417 20.2986 12.6779 21.3301 12.6779H33.6033Z" fill="#283954"/>
<path d="M72.6151 15.9557C65.5427 15.9557 59.789 21.7093 59.789 28.7815V76.1215C59.789 81.6175 55.3177 86.0889 49.8217 86.0889C44.8112 86.0889 40.654 82.372 39.9584 77.551H42.37C43.4013 77.551 44.2376 76.7148 44.2376 75.6833V68.7848H47.0452C51.2975 68.7848 54.7569 65.3245 54.7569 61.0713V14.9004C54.7569 10.6481 51.2975 7.18875 47.0452 7.18875C45.8249 7.18875 44.6328 6.62045 43.8641 5.59688L42.1107 3.26092C40.6617 1.32926 38.3555 0.175781 35.9418 0.175781H18.9926C16.5778 0.175781 14.271 1.32926 12.8217 3.26145L11.07 5.59775C10.3228 6.59408 9.13307 7.1891 7.88748 7.1891C5.82768 7.1891 3.89074 7.99154 2.43387 9.44877C0.97752 10.9046 0.175781 12.8406 0.175781 14.9004V26.1346C0.175781 27.1661 1.01197 28.0023 2.04346 28.0023C3.07494 28.0023 3.91113 27.1661 3.91113 26.1346V14.9004C3.91113 12.6988 5.69408 10.9241 7.88748 10.9241C10.3025 10.9241 12.6093 9.77063 14.0585 7.83844L15.8101 5.50213C16.5574 4.5058 17.747 3.91096 18.9926 3.91096H35.9418C37.186 3.91096 38.3753 4.5058 39.1229 5.50283L40.8772 7.83984C42.3055 9.74144 44.5732 10.9241 47.0454 10.9241C49.2379 10.9241 51.0217 12.7079 51.0217 14.9004V61.0713C51.0217 63.2649 49.2379 65.0494 47.0454 65.0494C23.7579 65.0491 30.8417 65.0486 7.88766 65.0494C5.69514 65.0494 3.91131 63.2649 3.91131 61.0713V33.6016C3.91131 32.5702 3.07512 31.734 2.04363 31.734C1.01215 31.734 0.175781 32.5702 0.175781 33.6016V61.0713C0.175781 65.3245 3.63516 68.7848 7.88748 68.7848H10.6958V75.6833C10.6958 76.7148 11.532 77.551 12.5634 77.551H21.3302C22.3617 77.551 23.1979 76.7148 23.1979 75.6833V68.7848H31.7357V75.6833C31.7357 76.7148 32.5719 77.551 33.6034 77.551H36.1939C36.9109 84.4374 42.7486 89.8242 49.8217 89.8242C57.3775 89.8242 63.5244 83.6773 63.5244 76.1215V28.7817C63.5244 23.7691 67.6025 19.6912 72.6151 19.6912C77.6275 19.6912 81.7056 23.7693 81.7056 28.7817V40.6167C81.7056 41.6482 82.5418 42.4844 83.5733 42.4844C84.6047 42.4844 85.4409 41.6482 85.4409 40.6167V28.7817C85.4408 21.7093 79.6871 15.9557 72.6151 15.9557ZM19.4625 73.8156H14.4311V68.7848H19.4625V73.8156ZM35.4711 68.7848H40.5023V73.8156H35.4711V68.7848ZM83.5731 55.2881C82.5416 55.2881 81.7054 56.1243 81.7054 57.1558V61.6567C81.7054 62.6882 82.5416 63.5244 83.5731 63.5244C84.6046 63.5244 85.4408 62.6882 85.4408 61.6567V57.1558C85.4408 56.1243 84.6046 55.2881 83.5731 55.2881Z" fill="#283954"/>
<path d="M87.9565 38.749H79.1899C78.1586 38.749 77.3223 39.5852 77.3223 40.6167V52.773C77.3223 56.2197 80.1263 59.0242 83.5732 59.0242C87.0201 59.0242 89.8244 56.2199 89.8244 52.773V40.6167C89.8242 39.5852 88.988 38.749 87.9565 38.749ZM86.0888 52.773C86.0888 54.1601 84.9601 55.2888 83.573 55.2888C82.186 55.2888 81.0574 54.1601 81.0574 52.773V42.4844H86.0887V52.773H86.0888Z" fill="#DC5461"/>
</g>
<defs>
<clipPath id="clip0_87_3808">
<rect width="90" height="90" fill="white"/>
</clipPath>
</defs>
</svg>
